<?xml version="1.0" encoding="utf-8"?>
<!-- Generator: Adobe Illustrator 27.3.1, SVG Export Plug-In . SVG Version: 6.00 Build 0)  -->
<svg version="1.1" id="Ebene_1" xmlns="http://www.w3.org/2000/svg" xmlns:xlink="http://www.w3.org/1999/xlink" x="0px" y="0px"
	 viewBox="0 0 16 10.2" style="enable-background:new 0 0 16 10.2;" xml:space="preserve">
<style type="text/css">
	.st0{fill:#ECEFF1;}
	.st1{fill:#F44336;}
	.st2{fill:#3F51B5;}
	.st3{fill:#FFFFFF;}
</style>
<path class="st0" d="M0.7,0.6h14.7v9H0.7C0.7,9.6,0.7,0.6,0.7,0.6z"/>
<path class="st1" d="M0.7,0.6h14.7v1H0.7C0.7,1.6,0.7,0.6,0.7,0.6z M0.7,2.6h14.7v1H0.7V2.6z M0.7,4.6h14.7v1H0.7V4.6z M0.7,6.6
	h14.7v1H0.7V6.6z M0.7,8.6h14.7v1H0.7V8.6z"/>
<path class="st2" d="M0.7,0.6h7v5h-7C0.7,5.6,0.7,0.6,0.7,0.6z"/>
<path class="st3" d="M1.4,1.3l0.2,0.3l0.3,0.1L1.7,1.9l0.1,0.4L1.4,2.1L1.1,2.3l0.1-0.4L0.9,1.7l0.3-0.1L1.4,1.3z M2.8,1.3l0.2,0.3
	l0.3,0.1L3,1.9l0.1,0.4L2.8,2.1L2.4,2.3l0.1-0.4L2.2,1.7l0.3-0.1L2.8,1.3z M4.1,1.3l0.2,0.3l0.3,0.1L4.3,1.9l0.1,0.4L4.1,2.1
	L3.8,2.3l0.1-0.4L3.6,1.7l0.3-0.1L4.1,1.3z M5.4,1.3l0.2,0.3l0.3,0.1L5.7,1.9l0.1,0.4L5.4,2.1L5.1,2.3l0.1-0.4L4.9,1.7l0.3-0.1
	C5.3,1.6,5.4,1.3,5.4,1.3z M6.7,1.3l0.2,0.3l0.3,0.1L6.9,1.9L7,2.3L6.7,2.1L6.4,2.3l0.1-0.4L6.2,1.7l0.3-0.1
	C6.5,1.6,6.7,1.3,6.7,1.3z M1.4,3.9l0.2,0.3l0.3,0.1L1.7,4.6l0.1,0.4L1.4,4.8L1.1,4.9l0.1-0.4L0.9,4.3l0.3-0.1L1.4,3.9L1.4,3.9z
	 M2.8,3.9l0.2,0.3l0.3,0.1L3,4.6l0.1,0.4L2.8,4.8L2.4,4.9l0.1-0.4L2.3,4.3l0.3-0.1L2.8,3.9L2.8,3.9z M4.1,3.9l0.2,0.3l0.3,0.1
	L4.3,4.6l0.1,0.4L4.1,4.8L3.8,4.9l0.1-0.4L3.6,4.3l0.3-0.1L4.1,3.9L4.1,3.9z M5.4,3.9l0.2,0.3l0.3,0.1L5.7,4.6l0.1,0.4L5.4,4.8
	L5.1,4.9l0.1-0.4L4.9,4.3l0.3-0.1L5.4,3.9L5.4,3.9z M6.7,3.9l0.2,0.3l0.3,0.1L6.9,4.6L7,4.9L6.7,4.8L6.4,4.9l0.1-0.4L6.2,4.3
	l0.3-0.1L6.7,3.9L6.7,3.9z M1.8,2.6l0.2,0.3L2.2,3L2,3.2l0.1,0.4L1.8,3.4L1.4,3.6l0.1-0.4L1.2,3l0.3-0.1L1.8,2.6z M3.1,2.6l0.2,0.3
	L3.6,3L3.3,3.2l0.1,0.4L3.1,3.4L2.8,3.6l0.1-0.4L2.6,3l0.3-0.1L3.1,2.6z M4.4,2.6l0.2,0.3L4.9,3L4.7,3.2l0.1,0.4L4.4,3.4L4.1,3.6
	l0.1-0.4L3.9,3l0.3-0.1L4.4,2.6z M5.8,2.6l0.2,0.3L6.2,3L6,3.2l0.1,0.4L5.8,3.4L5.4,3.6l0.1-0.4L5.2,3l0.3-0.1L5.8,2.6z M7,2.6
	l0.2,0.3L7.5,3L7.2,3.2l0.1,0.4L7,3.4L6.7,3.6l0.1-0.4L6.5,3l0.3-0.1L7,2.6z"/>
</svg>
